# Blender 3.5.1
# www.blender.org
mtllib carpet.mtl
o Box005
v -0.800000 0.000000 1.150000
v 0.800000 0.000000 1.150000
v -0.800000 -0.000000 -1.150000
v 0.800000 -0.000000 -1.150000
v -0.800000 0.001300 1.150000
v 0.800000 0.001300 1.150000
v -0.800000 0.001300 -1.150000
v 0.800000 0.001300 -1.150000
v 0.797561 0.000800 1.149399
v -0.797561 0.000800 1.148171
v 0.797561 0.000800 -1.149695
v -0.797561 0.000800 -1.148308
v 0.800000 0.000650 1.150000
v -0.800000 0.000950 1.150000
v 0.800000 0.000650 -1.150000
v -0.800000 0.000650 -1.150000
v 0.800000 0.000950 1.150000
v -0.800000 0.000650 1.150000
v 0.800000 0.000950 -1.150000
v -0.800000 0.000950 -1.150000
v 0.799850 0.000800 1.150293
v -0.799850 0.000800 1.150293
v -0.799850 0.000800 -1.150408
v 0.799850 0.000800 -1.150408
v -0.798820 0.001300 1.148820
v 0.798820 0.001300 1.148820
v 0.798820 0.001300 -1.148820
v -0.798820 0.001300 -1.148820
v -0.797640 0.001300 1.147640
v 0.797640 0.001300 1.147640
v 0.797640 0.001300 -1.147640
v -0.797640 0.001300 -1.147640
vn -0.0000 1.0000 -0.0000
vn 0.2168 -0.2993 0.9292
vn 0.8900 -0.0000 0.4559
vn 0.2098 0.3690 0.9054
vn -0.2924 0.0808 0.9529
vn -0.2167 -0.2995 0.9292
vn 0.2167 -0.2995 0.9292
vn -0.8900 -0.0000 0.4559
vn 1.0000 -0.0000 -0.0000
vn 0.5471 0.8273 0.1274
vn 0.5817 0.7970 -0.1624
vn 0.5817 0.7970 -0.1625
vn -0.2863 -0.3920 -0.8743
vn -0.9385 -0.0000 -0.3452
vn -0.2534 0.3637 -0.8964
vn 0.3297 0.0972 -0.9391
vn 0.2866 -0.3917 -0.8743
vn -0.2866 -0.3917 -0.8743
vn 0.9385 -0.0000 -0.3452
vn -1.0000 -0.0000 -0.0000
vn -0.6437 0.7479 -0.1622
vn -0.6079 0.7822 0.1368
vn 0.5597 0.3624 0.7452
vn 0.5773 0.5774 0.5773
vn -0.6206 0.6645 0.4163
vn -0.9650 -0.0000 0.2624
vn 0.6333 0.6833 -0.3634
vn 0.9814 -0.0000 -0.1921
vn -0.5621 0.4158 -0.7150
vn -0.5773 0.5774 -0.5773
vn 0.9223 0.0001 -0.3865
vn 0.3637 -0.0000 -0.9315
vn -0.6798 -0.0000 -0.7334
vn -0.9780 0.0002 -0.2086
vn 0.9020 -0.0005 0.4317
vn -0.9762 0.0001 0.2171
vn -0.6760 -0.0000 0.7369
vn 0.2971 -0.0000 0.9548
vn -0.2139 -0.9547 -0.2070
vn 0.1088 -0.9740 -0.1986
vn 0.0795 -0.9852 0.1517
vn -0.1772 -0.9695 0.1695
vt -0.000000 0.000127
vt 1.000000 0.000127
vt -0.000000 0.999823
vt 1.000000 0.999823
vt -0.000000 0.000127
vt 1.000000 0.000127
vt -0.000000 0.999823
vt 1.000000 0.999823
vt 0.998476 0.000388
vt 0.001524 0.000922
vt 0.998476 0.999690
vt 0.001524 0.999087
vt 1.000000 0.000127
vt -0.000000 0.000127
vt 1.000000 0.999823
vt -0.000000 0.999823
vt 1.000000 0.000127
vt -0.000000 0.000127
vt 1.000000 0.999823
vt -0.000000 0.999823
vt 0.999906 -0.000000
vt 0.000094 -0.000000
vt 0.000094 1.000000
vt 0.999906 1.000000
vt 0.000738 0.000640
vt 0.999262 0.000640
vt 0.999262 0.999310
vt 0.000738 0.999310
vt 0.001475 0.001153
vt 0.998525 0.001153
vt 0.998525 0.998797
vt 0.001475 0.998797
s 1
usemtl Material_#120
f 29/29/1 30/30/1 31/31/1
f 31/31/1 32/32/1 29/29/1
f 2/2/2 13/13/3 21/21/4
f 2/2/2 21/21/4 22/22/5
f 1/1/6 2/2/7 22/22/5
f 1/1/6 22/22/5 18/18/8
f 3/3/13 16/16/14 23/23/15
f 3/3/13 23/23/15 24/24/16
f 4/4/17 3/3/18 24/24/16
f 4/4/17 24/24/16 15/15/19
f 17/17/23 6/6/24 5/5/25
f 5/5/25 14/14/26 22/22/5
f 17/17/23 5/5/25 22/22/5
f 17/17/23 22/22/5 21/21/4
f 8/8/27 6/6/24 17/17/23
f 17/17/23 19/19/28 8/8/27
f 20/20/29 7/7/30 8/8/27
f 8/8/27 19/19/28 24/24/16
f 20/20/29 8/8/27 24/24/16
f 20/20/29 24/24/16 23/23/15
f 5/5/25 7/7/30 20/20/29
f 20/20/29 14/14/26 5/5/25
f 14/14/39 10/10/34 22/22/33
f 21/21/32 9/9/31 17/17/40
f 11/11/35 19/19/41 17/17/40
f 17/17/40 9/9/31 11/11/35
f 19/19/41 11/11/35 24/24/38
f 23/23/37 12/12/36 20/20/42
f 10/10/34 14/14/39 20/20/42
f 20/20/42 12/12/36 10/10/34
f 5/5/25 6/6/24 26/26/1
f 26/26/1 25/25/1 5/5/25
f 6/6/24 8/8/27 27/27/1
f 27/27/1 26/26/1 6/6/24
f 8/8/27 7/7/30 28/28/1
f 28/28/1 27/27/1 8/8/27
f 7/7/30 5/5/25 25/25/1
f 25/25/1 28/28/1 7/7/30
f 25/25/1 26/26/1 30/30/1
f 30/30/1 29/29/1 25/25/1
f 26/26/1 27/27/1 31/31/1
f 31/31/1 30/30/1 26/26/1
f 27/27/1 28/28/1 32/32/1
f 32/32/1 31/31/1 27/27/1
f 28/28/1 25/25/1 29/29/1
f 29/29/1 32/32/1 28/28/1
usemtl Material_#121
f 4/4/9 15/15/10 13/13/11
f 13/13/12 2/2/9 4/4/9
f 1/1/20 18/18/21 16/16/22
f 16/16/22 3/3/20 1/1/20
f 13/13/11 9/9/31 21/21/32
f 22/22/33 10/10/34 18/18/21
f 9/9/31 13/13/11 15/15/10
f 15/15/10 11/11/35 9/9/31
f 16/16/22 12/12/36 23/23/37
f 24/24/38 11/11/35 15/15/10
f 12/12/36 16/16/22 18/18/21
f 18/18/21 10/10/34 12/12/36
