# Blender 3.5.1
# www.blender.org
mtllib closet.mtl
o armario
v -0.045056 0.007348 0.112902
v 0.045056 0.007348 0.112902
v -0.045056 0.337995 0.112902
v 0.045056 0.337995 0.112902
v -0.045056 0.337995 -0.112902
v 0.045056 0.337995 -0.112902
v -0.045056 0.007348 -0.112902
v 0.045056 0.007348 -0.112902
v -0.049122 0.337995 0.123089
v 0.049122 0.337995 0.123089
v -0.049122 0.337995 -0.123089
v 0.049122 0.337995 -0.123089
v -0.049122 0.348951 0.123089
v 0.049122 0.348951 0.123089
v -0.049122 0.348951 -0.123089
v 0.049122 0.348951 -0.123089
v 0.045056 0.020319 -0.104044
v 0.045056 0.020319 0.104044
v 0.045056 0.325024 -0.104044
v 0.045056 0.325024 0.104044
v 0.054505 0.020319 -0.104044
v 0.054505 0.020319 0.104044
v 0.054505 0.325024 -0.104044
v 0.054505 0.325024 0.104044
v 0.054569 0.153381 0.019480
v 0.061347 0.153381 0.019480
v 0.054569 0.199085 0.019480
v 0.061347 0.199085 0.019480
v 0.054569 0.199085 0.009480
v 0.061347 0.199085 0.009480
v 0.054569 0.153381 0.009480
v 0.061347 0.153381 0.009480
v 0.054569 0.153381 -0.010248
v 0.061347 0.153381 -0.010248
v 0.054569 0.199085 -0.010248
v 0.061347 0.199085 -0.010248
v 0.054569 0.199085 -0.020248
v 0.061347 0.199085 -0.020248
v 0.054569 0.153381 -0.020248
v 0.061347 0.153381 -0.020248
v 0.032918 -0.000018 -0.092435
v 0.042918 -0.000018 -0.092435
v 0.032918 0.007538 -0.092435
v 0.042918 0.007538 -0.092435
v 0.032918 0.007538 -0.110323
v 0.042918 0.007538 -0.110323
v 0.032918 -0.000018 -0.110323
v 0.042918 -0.000018 -0.110323
v -0.041750 -0.000018 -0.092435
v -0.031750 -0.000018 -0.092435
v -0.041750 0.007538 -0.092435
v -0.031750 0.007538 -0.092435
v -0.041750 0.007538 -0.110323
v -0.031750 0.007538 -0.110323
v -0.041750 -0.000018 -0.110323
v -0.031750 -0.000018 -0.110323
v 0.032918 -0.000018 0.107569
v 0.042918 -0.000018 0.107569
v 0.032918 0.007538 0.107569
v 0.042918 0.007538 0.107569
v 0.032918 0.007538 0.089680
v 0.042918 0.007538 0.089680
v 0.032918 -0.000018 0.089680
v 0.042918 -0.000018 0.089680
v -0.041750 -0.000018 0.107569
v -0.031750 -0.000018 0.107569
v -0.041750 0.007538 0.107569
v -0.031750 0.007538 0.107569
v -0.041750 0.007538 0.089680
v -0.031750 0.007538 0.089680
v -0.041750 -0.000018 0.089680
v -0.031750 -0.000018 0.089680
vn -0.0000 -0.0000 1.0000
vn -0.0000 -0.0000 -1.0000
vn -0.0000 -1.0000 -0.0000
vn 1.0000 -0.0000 -0.0000
vn -1.0000 -0.0000 -0.0000
vn -0.0000 1.0000 -0.0000
vt 0.920974 0.673930
vt 0.967536 0.622107
vt 0.029165 0.117173
vt 0.903441 0.960756
vt 0.953627 0.487257
vt 0.968086 0.945709
vt 0.729686 0.489267
vt 0.029165 0.980421
vt 0.721248 0.948827
vt 0.949681 0.047837
vt 0.660236 0.905661
vt 0.725741 0.049848
vt 0.618691 0.980421
vt 0.801295 0.637343
vt 0.783291 0.563511
vt 0.618691 0.117173
vt 0.926480 0.453454
vt 0.756221 0.454983
vt 0.923146 0.082121
vt 0.752887 0.083650
vt 0.904094 0.425835
vt 0.778108 0.426966
vt 0.901260 0.110138
vt 0.775273 0.111270
vt 0.595564 0.151038
vt 0.052292 0.151038
vt 0.595564 0.946556
vt 0.052292 0.946556
vt 0.595564 0.151038
vt 0.052292 0.151038
vt 0.595564 0.946556
vt 0.052292 0.946556
vt 0.266942 0.016501
vt 0.249347 0.034114
vt 0.057537 0.016826
vt 0.075187 0.034384
vt 0.057652 0.090713
vt 0.075246 0.072490
vt 0.267056 0.090388
vt 0.249406 0.072220
vt 0.266940 0.015241
vt 0.249346 0.033464
vt 0.057535 0.015566
vt 0.075186 0.033734
vt 0.057650 0.089453
vt 0.075245 0.071840
vt 0.267054 0.089128
vt 0.249405 0.071570
vt 0.369650 0.031677
vt 0.369651 0.071644
vt 0.351069 0.006110
vt 0.351069 0.097194
vt 0.471723 0.006640
vt 0.471723 0.097724
vt 0.452951 0.032043
vt 0.452952 0.072010
vt 0.369650 0.031563
vt 0.369651 0.071530
vt 0.351069 0.005850
vt 0.351069 0.096934
vt 0.471723 0.006380
vt 0.471723 0.097464
vt 0.452952 0.031929
vt 0.452952 0.071896
vt 0.369228 0.031675
vt 0.369228 0.071642
vt 0.350457 0.006107
vt 0.350457 0.097191
vt 0.471111 0.006637
vt 0.471111 0.097721
vt 0.452529 0.032041
vt 0.452529 0.072008
vt 0.369228 0.031561
vt 0.369228 0.071528
vt 0.350457 0.005847
vt 0.350457 0.096931
vt 0.471111 0.006377
vt 0.471111 0.097461
vt 0.452529 0.031927
vt 0.452529 0.071894
s 1
usemtl phongE1
f 2/2/1 3/4/1 1/1/1
f 6/11/2 7/14/2 5/9/2
f 8/15/3 1/1/3 7/14/3
f 21/29/4 24/32/4 22/30/4
f 1/1/5 5/9/5 7/14/5
f 3/5/3 10/18/3 9/17/3
f 6/12/3 11/19/3 12/20/3
f 3/5/3 11/19/3 5/10/3
f 6/12/3 10/18/3 4/7/3
f 10/18/1 13/21/1 9/17/1
f 11/19/2 16/24/2 12/20/2
f 9/17/5 15/23/5 11/19/5
f 12/20/4 14/22/4 10/18/4
f 16/24/6 13/21/6 14/22/6
f 2/3/4 17/25/4 18/26/4
f 6/13/4 17/25/4 8/16/4
f 6/13/4 20/28/4 19/27/4
f 2/3/4 20/28/4 4/8/4
f 17/25/3 22/30/3 18/26/3
f 19/27/2 21/29/2 17/25/2
f 20/28/6 23/31/6 19/27/6
f 18/26/1 24/32/1 20/28/1
f 26/34/1 27/35/1 25/33/1
f 28/36/6 29/37/6 27/35/6
f 30/38/2 31/39/2 29/37/2
f 32/40/3 25/33/3 31/39/3
f 32/40/4 28/36/4 26/34/4
f 34/42/1 35/43/1 33/41/1
f 36/44/6 37/45/6 35/43/6
f 38/46/2 39/47/2 37/45/2
f 40/48/3 33/41/3 39/47/3
f 40/48/4 36/44/4 34/42/4
f 42/50/1 43/51/1 41/49/1
f 46/54/2 47/55/2 45/53/2
f 48/56/3 41/49/3 47/55/3
f 48/56/4 44/52/4 42/50/4
f 41/49/5 45/53/5 47/55/5
f 50/58/1 51/59/1 49/57/1
f 54/62/2 55/63/2 53/61/2
f 56/64/3 49/57/3 55/63/3
f 56/64/4 52/60/4 50/58/4
f 49/57/5 53/61/5 55/63/5
f 58/66/1 59/67/1 57/65/1
f 62/70/2 63/71/2 61/69/2
f 64/72/3 57/65/3 63/71/3
f 64/72/4 60/68/4 58/66/4
f 57/65/5 61/69/5 63/71/5
f 66/74/1 67/75/1 65/73/1
f 70/78/2 71/79/2 69/77/2
f 72/80/3 65/73/3 71/79/3
f 72/80/4 68/76/4 66/74/4
f 65/73/5 69/77/5 71/79/5
f 2/2/1 4/6/1 3/4/1
f 6/11/2 8/15/2 7/14/2
f 8/15/3 2/2/3 1/1/3
f 21/29/4 23/31/4 24/32/4
f 1/1/5 3/4/5 5/9/5
f 3/5/3 4/7/3 10/18/3
f 6/12/3 5/10/3 11/19/3
f 3/5/3 9/17/3 11/19/3
f 6/12/3 12/20/3 10/18/3
f 10/18/1 14/22/1 13/21/1
f 11/19/2 15/23/2 16/24/2
f 9/17/5 13/21/5 15/23/5
f 12/20/4 16/24/4 14/22/4
f 16/24/6 15/23/6 13/21/6
f 2/3/4 8/16/4 17/25/4
f 6/13/4 19/27/4 17/25/4
f 6/13/4 4/8/4 20/28/4
f 2/3/4 18/26/4 20/28/4
f 17/25/3 21/29/3 22/30/3
f 19/27/2 23/31/2 21/29/2
f 20/28/6 24/32/6 23/31/6
f 18/26/1 22/30/1 24/32/1
f 26/34/1 28/36/1 27/35/1
f 28/36/6 30/38/6 29/37/6
f 30/38/2 32/40/2 31/39/2
f 32/40/3 26/34/3 25/33/3
f 32/40/4 30/38/4 28/36/4
f 34/42/1 36/44/1 35/43/1
f 36/44/6 38/46/6 37/45/6
f 38/46/2 40/48/2 39/47/2
f 40/48/3 34/42/3 33/41/3
f 40/48/4 38/46/4 36/44/4
f 42/50/1 44/52/1 43/51/1
f 46/54/2 48/56/2 47/55/2
f 48/56/3 42/50/3 41/49/3
f 48/56/4 46/54/4 44/52/4
f 41/49/5 43/51/5 45/53/5
f 50/58/1 52/60/1 51/59/1
f 54/62/2 56/64/2 55/63/2
f 56/64/3 50/58/3 49/57/3
f 56/64/4 54/62/4 52/60/4
f 49/57/5 51/59/5 53/61/5
f 58/66/1 60/68/1 59/67/1
f 62/70/2 64/72/2 63/71/2
f 64/72/3 58/66/3 57/65/3
f 64/72/4 62/70/4 60/68/4
f 57/65/5 59/67/5 61/69/5
f 66/74/1 68/76/1 67/75/1
f 70/78/2 72/80/2 71/79/2
f 72/80/3 66/74/3 65/73/3
f 72/80/4 70/78/4 68/76/4
f 65/73/5 67/75/5 69/77/5
