# Blender 3.5.1
# www.blender.org
mtllib frame.mtl
o Painting
v 0.421705 0.279539 -0.034692
v 0.421705 -0.279539 -0.034692
v -0.421712 0.279539 -0.034692
v -0.421712 -0.279539 -0.034692
v -0.421712 0.279539 -0.026729
v 0.421705 0.279539 -0.026729
v 0.421705 -0.279539 -0.026729
v -0.421712 -0.279539 -0.026729
vn -0.0000 -0.0000 -1.0000
vn -0.0000 -0.0000 1.0000
vt 0.352403 0.485129
vt 0.074296 0.485129
vt 0.352403 0.065581
vt 0.074296 0.065581
vt 0.757699 0.449782
vt 0.757699 0.030235
vt 0.479592 0.030235
vt 0.479592 0.449782
s 0
usemtl Victorian_Paintings
f 1/1/1 4/4/1 3/3/1
f 6/6/2 8/8/2 7/7/2
f 1/1/1 2/2/1 4/4/1
f 6/6/2 5/5/2 8/8/2
o Victorian_Framed_Painting
v 0.567884 0.420007 -0.040420
v 0.567884 -0.420007 -0.040420
v -0.567884 0.420007 -0.040420
v -0.567884 -0.420007 -0.040420
v -0.550722 0.403706 -0.040420
v 0.550722 0.403706 -0.040420
v 0.550722 -0.403706 -0.040420
v -0.550722 -0.403706 -0.040420
v -0.454137 0.311964 -0.046122
v 0.454137 0.311964 -0.046122
v 0.454136 -0.311964 -0.046122
v -0.454137 -0.311964 -0.046122
v -0.550722 0.403706 -0.046122
v 0.550722 0.403706 -0.046122
v 0.550722 -0.403706 -0.046122
v -0.550722 -0.403706 -0.046122
v -0.454137 0.311964 -0.019465
v 0.454137 0.311964 -0.019465
v 0.454136 -0.311964 -0.019465
v -0.454137 -0.311964 -0.019465
v 0.567884 0.420007 -0.000000
v 0.567884 -0.420007 -0.000000
v -0.567884 0.420007 0.000000
v -0.567884 -0.420007 0.000000
v -0.511009 -0.365984 0.000000
v -0.511009 0.365984 0.000000
v 0.511009 0.365984 -0.000000
v 0.511009 -0.365984 -0.000000
v -0.511009 -0.365984 -0.019465
v -0.511009 0.365984 -0.019465
v 0.511009 0.365984 -0.019465
v 0.511009 -0.365984 -0.019465
v -0.428171 0.285998 -0.040420
v -0.428171 -0.285998 -0.040420
v -0.454137 0.311964 -0.040420
v -0.454137 -0.311964 -0.040420
v -0.421712 0.279539 -0.035887
v -0.421712 -0.279539 -0.035887
v -0.428171 0.285998 -0.035887
v -0.428171 -0.285998 -0.035887
v -0.454137 0.311964 -0.025234
v -0.454137 -0.311964 -0.025234
v -0.421712 0.279539 -0.025234
v -0.421712 -0.279539 -0.025234
v -0.454137 -0.311964 -0.035887
v -0.454137 0.311964 -0.035887
v -0.428171 -0.285998 -0.025234
v -0.428171 0.285998 -0.025234
v 0.428164 0.285998 -0.040420
v 0.428164 -0.285998 -0.040420
v 0.454130 0.311964 -0.040420
v 0.454130 -0.311964 -0.040420
v 0.421705 0.279539 -0.035888
v 0.421705 -0.279539 -0.035888
v 0.428164 0.285998 -0.035888
v 0.428164 -0.285998 -0.035888
v 0.454130 0.311964 -0.025234
v 0.454130 -0.311964 -0.025234
v 0.421705 0.279539 -0.025234
v 0.421705 -0.279539 -0.025234
v 0.454130 -0.311964 -0.035888
v 0.454130 0.311964 -0.035888
v 0.428164 -0.285998 -0.025234
v 0.428164 0.285998 -0.025234
v -0.428171 -0.285998 -0.040420
v 0.428171 -0.285998 -0.040420
v -0.454137 -0.311964 -0.040420
v 0.454136 -0.311964 -0.040420
v -0.421712 -0.279539 -0.035887
v 0.421712 -0.279539 -0.035888
v -0.428171 -0.285998 -0.035887
v 0.428171 -0.285998 -0.035888
v -0.454137 -0.311964 -0.025234
v 0.454136 -0.311964 -0.025234
v -0.421712 -0.279539 -0.025234
v 0.421712 -0.279539 -0.025234
v 0.454136 -0.311964 -0.035888
v -0.454137 -0.311964 -0.035887
v 0.428171 -0.285998 -0.025234
v -0.428171 -0.285998 -0.025234
v -0.428171 0.285998 -0.040420
v 0.428171 0.285998 -0.040420
v -0.454137 0.311963 -0.040420
v 0.454137 0.311963 -0.040420
v -0.421712 0.279539 -0.035887
v 0.421712 0.279539 -0.035888
v -0.428171 0.285998 -0.035887
v 0.428171 0.285998 -0.035888
v -0.454137 0.311963 -0.025234
v 0.454137 0.311963 -0.025234
v -0.421712 0.279539 -0.025234
v 0.421712 0.279539 -0.025234
v 0.454137 0.311963 -0.035888
v -0.454137 0.311963 -0.035887
v 0.428171 0.285998 -0.025234
v -0.428171 0.285998 -0.025234
v -0.454703 -0.224582 -0.019465
v -0.510312 -0.224582 -0.019465
v -0.454703 -0.224582 0.000921
v -0.510312 -0.224582 0.000921
v -0.454703 -0.365955 -0.019465
v -0.510312 -0.365955 -0.019465
v -0.454703 -0.365955 0.000921
v -0.510312 -0.365955 0.000921
v -0.454703 0.224582 -0.019465
v -0.510312 0.224582 -0.019465
v -0.454703 0.224582 0.000921
v -0.510312 0.224582 0.000921
v -0.454703 0.365954 -0.019465
v -0.510312 0.365954 -0.019465
v -0.454703 0.365954 0.000921
v -0.510312 0.365954 0.000921
v 0.454695 -0.224582 -0.019465
v 0.510305 -0.224582 -0.019465
v 0.454695 -0.224582 0.000921
v 0.510305 -0.224582 0.000921
v 0.454695 -0.365955 -0.019465
v 0.510305 -0.365955 -0.019465
v 0.454695 -0.365955 0.000921
v 0.510305 -0.365955 0.000921
v 0.454696 0.224582 -0.019465
v 0.510305 0.224582 -0.019465
v 0.454696 0.224582 0.000921
v 0.510305 0.224582 0.000921
v 0.454696 0.365954 -0.019465
v 0.510305 0.365954 -0.019465
v 0.454696 0.365954 0.000921
v 0.510305 0.365954 0.000921
v -0.073557 -0.310375 -0.019465
v -0.073557 -0.365985 -0.019465
v -0.073557 -0.310375 0.000921
v -0.073557 -0.365985 0.000921
v 0.067816 -0.310375 -0.019465
v 0.067815 -0.365985 -0.019465
v 0.067816 -0.310375 0.000921
v 0.067815 -0.365985 0.000921
v -0.073557 0.310375 -0.019465
v -0.073557 0.365984 -0.019465
v -0.073557 0.310375 0.000921
v -0.073557 0.365984 0.000921
v 0.067816 0.310375 -0.019465
v 0.067816 0.365984 -0.019465
v 0.067816 0.310375 0.000921
v 0.067816 0.365984 0.000921
vn 1.0000 -0.0000 -0.0000
vn -0.0000 -0.0000 1.0000
vn -0.0000 -1.0000 -0.0000
vn -0.0000 1.0000 -0.0000
vn -0.0000 -0.0000 -1.0000
vn -1.0000 -0.0000 -0.0000
vn 0.7071 0.7071 -0.0000
vn 0.7071 -0.7071 -0.0000
vn -0.7071 0.7071 -0.0000
vn -0.7071 -0.7071 -0.0000
vt 0.030999 0.538055
vt 0.798613 0.467255
vt 0.013574 0.520630
vt 0.410555 0.520630
vt 0.393130 0.538055
vt 0.437704 0.465682
vt 0.798613 0.015147
vt 0.031000 0.013574
vt 0.013574 0.030999
vt 0.410555 0.030999
vt 0.437704 0.013574
vt 0.393130 0.013574
vt 0.781374 0.500081
vt 0.773533 0.494404
vt 0.791121 0.022708
vt 0.773533 0.953368
vt 0.781374 0.947594
vt 0.791120 0.459618
vt 0.445485 0.953368
vt 0.437704 0.947691
vt 0.445196 0.458121
vt 0.437704 0.500177
vt 0.445485 0.494404
vt 0.445197 0.021211
vt 0.240228 0.588492
vt 0.825761 0.897391
vt 0.736289 0.539371
vt 0.825762 0.505833
vt 0.168678 0.857468
vt 0.736289 0.908400
vt 0.168678 0.588492
vt 0.825762 0.429650
vt 0.482789 0.908400
vt 0.825761 0.038092
vt 0.240228 0.857467
vt 0.482789 0.539371
vt 0.773564 0.500129
vt 0.773563 0.947643
vt 0.445514 0.947643
vt 0.445514 0.500129
vt 0.251720 0.588492
vt 0.837253 0.897391
vt 0.837254 0.505833
vt 0.180170 0.857468
vt 0.837253 0.429650
vt 0.180170 0.588492
vt 0.837253 0.038092
vt 0.251720 0.857467
vt 0.030999 0.520630
vt 0.393130 0.520630
vt 0.031000 0.030999
vt 0.393130 0.030999
vt 0.369841 0.055518
vt 0.284629 0.880755
vt 0.868933 0.013574
vt 0.284629 0.565204
vt 0.868933 0.921908
vt 0.054289 0.055518
vt 0.213079 0.880756
vt 0.868933 0.481316
vt 0.054289 0.496111
vt 0.369841 0.496111
vt 0.213079 0.565204
vt 0.868933 0.454167
vt 0.860541 0.013574
vt 0.276237 0.880755
vt 0.276237 0.565204
vt 0.860541 0.921908
vt 0.860541 0.481316
vt 0.204688 0.880756
vt 0.204688 0.565204
vt 0.860541 0.454167
vt 0.318232 0.576564
vt 0.352983 0.580104
vt 0.352983 0.805297
vt 0.318093 0.808598
vt 0.342760 0.569881
vt 0.329487 0.565204
vt 0.329398 0.820172
vt 0.342760 0.815519
vt 0.315620 0.584795
vt 0.316293 0.580898
vt 0.316219 0.804137
vt 0.315606 0.800358
vt 0.311791 0.580961
vt 0.319634 0.577953
vt 0.356913 0.580123
vt 0.311777 0.804145
vt 0.356913 0.805316
vt 0.319522 0.807203
vt 0.334185 0.569858
vt 0.334185 0.815496
vt 0.319727 0.584795
vt 0.319714 0.800358
vt 0.338473 0.815497
vt 0.330827 0.818776
vt 0.338473 0.569859
vt 0.330889 0.566593
vt 0.323163 0.803647
vt 0.323183 0.581516
vt 0.902536 0.257182
vt 0.937287 0.253642
vt 0.902398 0.025149
vt 0.937287 0.028449
vt 0.927064 0.263865
vt 0.913791 0.268542
vt 0.927064 0.018227
vt 0.913703 0.013574
vt 0.899924 0.248951
vt 0.900597 0.252848
vt 0.899910 0.033388
vt 0.900523 0.029609
vt 0.941217 0.253623
vt 0.896095 0.252784
vt 0.903938 0.255793
vt 0.896082 0.029601
vt 0.941217 0.028430
vt 0.903826 0.026544
vt 0.918489 0.263887
vt 0.918490 0.018250
vt 0.904032 0.248950
vt 0.904018 0.033387
vt 0.922777 0.018249
vt 0.915131 0.014970
vt 0.922777 0.263887
vt 0.915193 0.267153
vt 0.907467 0.030099
vt 0.907488 0.252230
vt 0.100268 0.576470
vt 0.136243 0.578954
vt 0.136243 0.881851
vt 0.099997 0.883808
vt 0.127059 0.569770
vt 0.111186 0.565204
vt 0.110996 0.895533
vt 0.127059 0.891035
vt 0.096282 0.585224
vt 0.097857 0.580804
vt 0.097691 0.879200
vt 0.096273 0.875037
vt 0.091135 0.580067
vt 0.101658 0.577817
vt 0.141530 0.578986
vt 0.091126 0.880093
vt 0.141530 0.881884
vt 0.101444 0.882450
vt 0.115845 0.569718
vt 0.115845 0.890984
vt 0.101340 0.585236
vt 0.101332 0.875049
vt 0.121452 0.891000
vt 0.112443 0.894175
vt 0.121452 0.569735
vt 0.112576 0.566551
vt 0.105345 0.878743
vt 0.105360 0.581557
vt 0.022715 0.884267
vt 0.058691 0.881782
vt 0.022445 0.576929
vt 0.058691 0.578885
vt 0.049507 0.890966
vt 0.033633 0.895533
vt 0.049507 0.569701
vt 0.033444 0.565204
vt 0.018730 0.875512
vt 0.020305 0.879933
vt 0.018721 0.585699
vt 0.020139 0.581536
vt 0.063978 0.881750
vt 0.013583 0.880669
vt 0.024106 0.882919
vt 0.013574 0.580643
vt 0.063978 0.578853
vt 0.023892 0.578287
vt 0.038293 0.891018
vt 0.038293 0.569752
vt 0.023788 0.875500
vt 0.023780 0.585687
vt 0.043900 0.569736
vt 0.034891 0.566561
vt 0.043900 0.891002
vt 0.035024 0.894185
vt 0.027793 0.581994
vt 0.027808 0.879179
vt 0.896082 0.698659
vt 0.904870 0.689871
vt 0.937632 0.698659
vt 0.928843 0.689871
vt 0.904870 0.698659
vt 0.928843 0.698659
vt 0.904870 0.768394
vt 0.896082 0.759605
vt 0.904870 0.628925
vt 0.928843 0.628925
vt 0.937632 0.759605
vt 0.928843 0.768394
vt 0.904870 0.759605
vt 0.928843 0.759605
vt 0.928843 0.435159
vt 0.937632 0.304479
vt 0.928843 0.295691
vt 0.896082 0.304479
vt 0.904870 0.295691
vt 0.904870 0.435159
vt 0.928843 0.304479
vt 0.904870 0.304479
vt 0.937632 0.365425
vt 0.928843 0.374213
vt 0.896082 0.365425
vt 0.904870 0.374213
vt 0.928843 0.365425
vt 0.904870 0.365425
vt 0.937632 0.865276
vt 0.928844 0.856488
vt 0.896082 0.865276
vt 0.904870 0.856488
vt 0.928844 0.865276
vt 0.904870 0.865276
vt 0.937632 0.926222
vt 0.928844 0.795542
vt 0.928844 0.935010
vt 0.896082 0.926222
vt 0.904870 0.795542
vt 0.904870 0.935010
vt 0.928844 0.926222
vt 0.904870 0.926222
vt 0.896082 0.471096
vt 0.904870 0.601776
vt 0.904870 0.462308
vt 0.937632 0.471096
vt 0.928843 0.601776
vt 0.928843 0.462308
vt 0.904870 0.471096
vt 0.928843 0.471096
vt 0.896082 0.532042
vt 0.904870 0.540830
vt 0.937632 0.532042
vt 0.928843 0.540830
vt 0.904870 0.532042
vt 0.928843 0.532042
vt 0.243079 0.916692
vt 0.384061 0.626150
vt 0.251867 0.907903
vt 0.284629 0.916692
vt 0.408035 0.626150
vt 0.275840 0.907903
vt 0.251867 0.916691
vt 0.275840 0.916692
vt 0.251867 0.986426
vt 0.243079 0.977637
vt 0.384061 0.565204
vt 0.408035 0.565204
vt 0.284629 0.977637
vt 0.275840 0.986426
vt 0.251867 0.977637
vt 0.275840 0.977637
vt 0.311777 0.856109
vt 0.377301 0.856109
vt 0.368513 0.847321
vt 0.344540 0.847321
vt 0.335751 0.856109
vt 0.368513 0.856109
vt 0.344540 0.856109
vt 0.377301 0.917055
vt 0.311777 0.917055
vt 0.368513 0.925843
vt 0.335751 0.917055
vt 0.344540 0.925843
vt 0.368513 0.917055
vt 0.344540 0.917055
s 0
usemtl Victorian_Paintings
f 15/27/3 22/46/3 14/24/3
f 36/70/4 32/60/4 30/58/4
f 27/53/4 37/73/4 40/80/4
f 36/70/4 29/57/4 35/69/4
f 15/28/5 24/48/5 23/47/5
f 27/54/4 39/78/4 26/52/4
f 28/55/6 19/40/6 20/42/6
f 13/21/6 22/46/6 21/45/6
f 10/12/5 32/60/5 12/18/5
f 19/41/7 24/48/7 20/44/7
f 16/31/8 21/45/8 24/48/8
f 37/74/4 25/49/4 38/75/4
f 25/49/3 20/43/3 17/33/3
f 16/32/7 11/15/7 13/23/7
f 10/13/3 29/57/3 30/58/3
f 10/14/7 14/26/7 9/10/7
f 12/19/7 15/29/7 10/14/7
f 32/60/4 34/66/4 31/59/4
f 33/62/3 38/75/3 34/64/3
f 36/71/8 39/78/8 40/79/8
f 20/44/7 21/45/7 17/35/7
f 13/23/7 9/10/7 14/26/7
f 26/51/5 17/34/5 18/36/5
f 38/76/4 26/51/4 39/77/4
f 35/68/5 38/76/5 39/77/5
f 17/35/7 22/46/7 18/38/7
f 11/16/8 32/60/8 31/59/8
f 29/57/6 11/17/6 31/59/6
f 31/59/4 35/69/4 29/57/4
f 27/54/8 18/37/8 19/39/8
f 19/41/7 22/46/7 23/47/7
f 33/63/6 40/80/6 37/73/6
f 46/92/7 47/93/7 45/89/7
f 45/89/3 52/102/3 46/92/3
f 42/83/7 43/85/7 41/82/7
f 53/103/8 49/99/8 54/105/8
f 45/90/9 56/108/9 51/101/9
f 44/88/8 54/105/8 43/85/8
f 56/108/9 54/106/9 49/99/9
f 43/86/9 47/94/9 41/81/9
f 53/104/10 55/107/10 50/100/10
f 42/84/10 53/104/10 44/87/10
f 41/82/3 48/97/3 42/83/3
f 55/107/4 51/101/4 56/108/4
f 49/99/4 55/107/4 56/108/4
f 52/102/10 48/98/10 46/91/10
f 62/119/7 63/122/7 64/124/7
f 61/117/8 68/130/8 67/129/8
f 58/112/7 59/113/7 60/115/7
f 69/131/3 65/127/3 66/128/3
f 61/118/11 72/136/11 63/123/11
f 60/115/3 70/133/3 69/131/3
f 72/136/11 70/134/11 63/123/11
f 59/114/11 63/123/11 70/134/11
f 69/132/12 71/135/12 64/126/12
f 58/111/12 69/132/12 64/126/12
f 57/110/8 64/125/8 63/121/8
f 71/135/4 67/129/4 68/130/4
f 65/127/4 71/135/4 66/128/4
f 68/130/12 64/126/12 71/135/12
f 78/148/7 79/149/7 77/145/7
f 77/145/6 84/158/6 78/148/6
f 74/139/7 75/141/7 73/138/7
f 85/159/5 81/155/5 86/161/5
f 77/146/11 88/164/11 83/157/11
f 76/144/5 86/161/5 75/141/5
f 88/164/11 86/162/11 81/155/11
f 75/142/11 79/150/11 73/137/11
f 85/160/9 87/163/9 82/156/9
f 74/140/9 85/160/9 76/143/9
f 73/138/6 80/153/6 74/139/6
f 87/163/4 83/157/4 88/164/4
f 81/155/4 87/163/4 88/164/4
f 84/158/9 80/154/9 78/147/9
f 94/175/7 95/178/7 96/180/7
f 93/173/5 100/186/5 99/185/5
f 90/168/7 91/169/7 92/171/7
f 101/187/6 97/183/6 98/184/6
f 93/174/12 104/192/12 95/179/12
f 92/171/6 102/189/6 101/187/6
f 104/192/12 102/190/12 95/179/12
f 91/170/12 95/179/12 102/190/12
f 101/188/10 103/191/10 96/182/10
f 90/167/10 101/188/10 96/182/10
f 89/166/5 96/181/5 95/177/5
f 103/191/4 99/185/4 100/186/4
f 97/183/4 103/191/4 98/184/4
f 100/186/10 96/182/10 103/191/10
f 108/198/4 111/205/4 107/197/4
f 107/197/3 109/200/3 105/193/3
f 108/198/8 110/203/8 112/206/8
f 106/196/7 109/201/7 110/202/7
f 111/205/5 110/204/5 109/199/5
f 105/194/6 108/198/6 107/197/6
f 116/214/4 119/219/4 120/220/4
f 115/213/3 117/215/3 119/219/3
f 116/214/8 118/217/8 114/210/8
f 114/212/7 117/216/7 113/207/7
f 119/219/6 118/218/6 120/220/6
f 113/209/5 116/214/5 114/211/5
f 124/226/4 127/233/4 128/234/4
f 123/225/8 125/227/8 127/233/8
f 124/226/3 126/230/3 122/223/3
f 122/224/7 125/228/7 121/222/7
f 127/233/5 126/232/5 128/234/5
f 121/222/6 124/226/6 122/224/6
f 132/242/4 135/247/4 131/241/4
f 131/241/8 133/243/8 129/235/8
f 132/242/3 134/245/3 136/248/3
f 130/239/7 133/244/7 134/246/7
f 135/247/6 134/246/6 133/244/6
f 129/237/5 132/242/5 131/241/5
f 140/256/4 143/263/4 139/255/4
f 139/255/6 141/258/6 137/249/6
f 140/256/5 142/261/5 144/264/5
f 138/253/7 141/259/7 142/260/7
f 143/263/3 142/262/3 141/257/3
f 137/251/8 140/256/8 139/255/8
f 148/271/4 151/277/4 152/278/4
f 147/270/5 149/272/5 151/277/5
f 148/271/6 150/275/6 146/269/6
f 146/269/7 149/273/7 145/265/7
f 151/277/3 150/276/3 152/278/3
f 145/267/8 148/271/8 146/268/8
f 15/27/3 23/47/3 22/46/3
f 36/70/4 33/61/4 32/60/4
f 27/53/4 28/55/4 37/73/4
f 36/70/4 30/58/4 29/57/4
f 15/28/5 16/30/5 24/48/5
f 27/54/4 40/79/4 39/78/4
f 28/55/6 27/53/6 19/40/6
f 13/21/6 14/25/6 22/46/6
f 10/12/5 30/58/5 32/60/5
f 19/41/7 23/47/7 24/48/7
f 16/31/8 13/22/8 21/45/8
f 37/74/4 28/56/4 25/49/4
f 25/49/3 28/56/3 20/43/3
f 16/32/7 12/19/7 11/15/7
f 10/13/3 9/9/3 29/57/3
f 10/14/7 15/29/7 14/26/7
f 12/19/7 16/32/7 15/29/7
f 32/60/4 33/61/4 34/66/4
f 33/62/3 37/74/3 38/75/3
f 36/71/8 35/67/8 39/78/8
f 20/44/7 24/48/7 21/45/7
f 13/23/7 11/15/7 9/10/7
f 26/51/5 25/50/5 17/34/5
f 38/76/4 25/50/4 26/51/4
f 35/68/5 34/65/5 38/76/5
f 17/35/7 21/45/7 22/46/7
f 11/16/8 12/20/8 32/60/8
f 29/57/6 9/11/6 11/17/6
f 31/59/4 34/66/4 35/69/4
f 27/54/8 26/52/8 18/37/8
f 19/41/7 18/38/7 22/46/7
f 33/63/6 36/72/6 40/80/6
f 46/92/7 48/96/7 47/93/7
f 45/89/3 51/101/3 52/102/3
f 42/83/7 44/88/7 43/85/7
f 53/103/8 50/100/8 49/99/8
f 45/90/9 47/94/9 56/108/9
f 44/88/8 53/103/8 54/105/8
f 56/108/9 47/94/9 54/106/9
f 43/86/9 54/106/9 47/94/9
f 53/104/10 48/98/10 55/107/10
f 42/84/10 48/98/10 53/104/10
f 41/82/3 47/95/3 48/97/3
f 55/107/4 52/102/4 51/101/4
f 49/99/4 50/100/4 55/107/4
f 52/102/10 55/107/10 48/98/10
f 62/119/7 61/117/7 63/122/7
f 61/117/8 62/119/8 68/130/8
f 58/112/7 57/110/7 59/113/7
f 69/131/3 70/133/3 65/127/3
f 61/118/11 67/129/11 72/136/11
f 60/115/3 59/113/3 70/133/3
f 72/136/11 65/127/11 70/134/11
f 59/114/11 57/109/11 63/123/11
f 69/132/12 66/128/12 71/135/12
f 58/111/12 60/116/12 69/132/12
f 57/110/8 58/112/8 64/125/8
f 71/135/4 72/136/4 67/129/4
f 65/127/4 72/136/4 71/135/4
f 68/130/12 62/120/12 64/126/12
f 78/148/7 80/152/7 79/149/7
f 77/145/6 83/157/6 84/158/6
f 74/139/7 76/144/7 75/141/7
f 85/159/5 82/156/5 81/155/5
f 77/146/11 79/150/11 88/164/11
f 76/144/5 85/159/5 86/161/5
f 88/164/11 79/150/11 86/162/11
f 75/142/11 86/162/11 79/150/11
f 85/160/9 80/154/9 87/163/9
f 74/140/9 80/154/9 85/160/9
f 73/138/6 79/151/6 80/153/6
f 87/163/4 84/158/4 83/157/4
f 81/155/4 82/156/4 87/163/4
f 84/158/9 87/163/9 80/154/9
f 94/175/7 93/173/7 95/178/7
f 93/173/5 94/175/5 100/186/5
f 90/168/7 89/166/7 91/169/7
f 101/187/6 102/189/6 97/183/6
f 93/174/12 99/185/12 104/192/12
f 92/171/6 91/169/6 102/189/6
f 104/192/12 97/183/12 102/190/12
f 91/170/12 89/165/12 95/179/12
f 101/188/10 98/184/10 103/191/10
f 90/167/10 92/172/10 101/188/10
f 89/166/5 90/168/5 96/181/5
f 103/191/4 104/192/4 99/185/4
f 97/183/4 104/192/4 103/191/4
f 100/186/10 94/176/10 96/182/10
f 108/198/4 112/206/4 111/205/4
f 107/197/3 111/205/3 109/200/3
f 108/198/8 106/195/8 110/203/8
f 106/196/7 105/194/7 109/201/7
f 111/205/5 112/206/5 110/204/5
f 105/194/6 106/196/6 108/198/6
f 116/214/4 115/213/4 119/219/4
f 115/213/3 113/208/3 117/215/3
f 116/214/8 120/220/8 118/217/8
f 114/212/7 118/218/7 117/216/7
f 119/219/6 117/216/6 118/218/6
f 113/209/5 115/213/5 116/214/5
f 124/226/4 123/225/4 127/233/4
f 123/225/8 121/221/8 125/227/8
f 124/226/3 128/234/3 126/230/3
f 122/224/7 126/231/7 125/228/7
f 127/233/5 125/229/5 126/232/5
f 121/222/6 123/225/6 124/226/6
f 132/242/4 136/248/4 135/247/4
f 131/241/8 135/247/8 133/243/8
f 132/242/3 130/238/3 134/245/3
f 130/239/7 129/236/7 133/244/7
f 135/247/6 136/248/6 134/246/6
f 129/237/5 130/240/5 132/242/5
f 140/256/4 144/264/4 143/263/4
f 139/255/6 143/263/6 141/258/6
f 140/256/5 138/252/5 142/261/5
f 138/253/7 137/250/7 141/259/7
f 143/263/3 144/264/3 142/262/3
f 137/251/8 138/254/8 140/256/8
f 148/271/4 147/270/4 151/277/4
f 147/270/5 145/266/5 149/272/5
f 148/271/6 152/278/6 150/275/6
f 146/269/7 150/275/7 149/273/7
f 151/277/3 149/274/3 150/276/3
f 145/267/8 147/270/8 148/271/8
