# Blender 3.5.1
# www.blender.org
mtllib match.mtl
o g_pCube1
v -0.000703 -0.010000 0.000742
v 0.000703 -0.010000 0.000742
v 0.000703 0.006322 0.000742
v -0.000703 0.006322 0.000742
v -0.000703 0.010000 0.000742
v 0.000703 0.010000 0.000742
v 0.000703 0.010000 -0.000742
v -0.000703 0.010000 -0.000742
v -0.000703 0.006322 -0.000742
v 0.000703 0.006322 -0.000742
v 0.000703 -0.010000 -0.000742
v -0.000703 -0.010000 -0.000742
v -0.000703 -0.010000 -0.000742
v 0.000703 -0.010000 -0.000742
v 0.000703 -0.010000 0.000742
v -0.000703 -0.010000 0.000742
v 0.000703 -0.010000 0.000742
v 0.000703 -0.010000 -0.000742
v 0.000703 0.006322 -0.000742
v 0.000703 0.006322 0.000742
v -0.000703 -0.010000 -0.000742
v -0.000703 -0.010000 0.000742
v -0.000703 0.006322 0.000742
v -0.000703 0.006322 -0.000742
v -0.001034 0.006322 0.001073
v 0.001034 0.006322 0.001073
v 0.001034 0.010000 0.001073
v -0.001034 0.010000 0.001073
v -0.001034 0.006322 -0.001073
v -0.001034 0.006322 0.001073
v -0.001034 0.010000 0.001073
v -0.001034 0.010000 -0.001073
v -0.001034 0.010000 -0.001073
v 0.001034 0.010000 -0.001073
v 0.001034 0.006322 -0.001073
v -0.001034 0.006322 -0.001073
v 0.001034 0.006322 0.001073
v 0.001034 0.006322 -0.001073
v 0.001034 0.010000 -0.001073
v 0.001034 0.010000 0.001073
v -0.000703 0.006322 0.000742
v 0.000703 0.006322 0.000742
v 0.001034 0.006322 0.001073
v -0.001034 0.006322 0.001073
v -0.001034 0.010000 0.001073
v 0.001034 0.010000 0.001073
v -0.000703 0.006322 -0.000742
v -0.001034 0.006322 -0.001073
v -0.000703 0.010000 -0.000742
v -0.001034 0.010000 -0.001073
v 0.001034 0.010000 -0.001073
v -0.001034 0.010000 -0.001073
v 0.000703 0.006322 -0.000742
v -0.000703 0.006322 -0.000742
v -0.001034 0.006322 -0.001073
v 0.001034 0.006322 -0.001073
v 0.000703 0.006322 -0.000742
v 0.001034 0.006322 -0.001073
v 0.000703 0.010000 -0.000742
v 0.001034 0.010000 -0.001073
vn -0.0000 -0.0000 1.0000
vn -0.0000 1.0000 -0.0000
vn -0.0000 -0.0000 -1.0000
vn -0.0000 -1.0000 -0.0000
vn 1.0000 -0.0000 -0.0000
vn -1.0000 -0.0000 -0.0000
vt 0.375000 0.000000
vt 0.625000 0.000000
vt 0.625000 0.209075
vt 0.375000 0.209075
vt 0.375000 0.250000
vt 0.625000 0.250000
vt 0.625000 0.500000
vt 0.375000 0.500000
vt 0.375000 0.540925
vt 0.625000 0.540925
vt 0.625000 0.750000
vt 0.375000 0.750000
vt 0.375000 0.750000
vt 0.625000 0.750000
vt 0.625000 1.000000
vt 0.375000 1.000000
vt 0.625000 0.000000
vt 0.875000 0.000000
vt 0.875000 0.209075
vt 0.625000 0.209075
vt 0.125000 0.000000
vt 0.375000 0.000000
vt 0.375000 0.209075
vt 0.125000 0.209075
vt 0.375000 0.209075
vt 0.625000 0.209075
vt 0.625000 0.250000
vt 0.375000 0.250000
vt 0.125000 0.209075
vt 0.375000 0.209075
vt 0.375000 0.250000
vt 0.125000 0.250000
vt 0.375000 0.500000
vt 0.625000 0.500000
vt 0.625000 0.540925
vt 0.375000 0.540925
vt 0.625000 0.209075
vt 0.875000 0.209075
vt 0.875000 0.250000
vt 0.625000 0.250000
vt 0.375000 0.209075
vt 0.625000 0.209075
vt 0.625000 0.209075
vt 0.375000 0.209075
vt 0.375000 0.250000
vt 0.625000 0.250000
vt 0.125000 0.209075
vt 0.125000 0.209075
vt 0.125000 0.250000
vt 0.125000 0.250000
vt 0.625000 0.500000
vt 0.375000 0.500000
vt 0.625000 0.540925
vt 0.375000 0.540925
vt 0.375000 0.540925
vt 0.625000 0.540925
vt 0.875000 0.209075
vt 0.875000 0.209075
vt 0.875000 0.250000
vt 0.875000 0.250000
s 0
usemtl lambert2SG
f 4/4/1 1/1/1 2/2/1
f 2/2/1 3/3/1 4/4/1
f 8/8/2 5/5/2 6/6/2
f 6/6/2 7/7/2 8/8/2
f 12/12/3 9/9/3 10/10/3
f 10/10/3 11/11/3 12/12/3
f 16/16/4 13/13/4 14/14/4
f 14/14/4 15/15/4 16/16/4
f 20/20/5 17/17/5 18/18/5
f 18/18/5 19/19/5 20/20/5
f 24/24/6 21/21/6 22/22/6
f 22/22/6 23/23/6 24/24/6
f 28/28/1 25/25/1 26/26/1
f 26/26/1 27/27/1 28/28/1
f 32/32/6 29/29/6 30/30/6
f 30/30/6 31/31/6 32/32/6
f 36/36/3 33/33/3 34/34/3
f 34/34/3 35/35/3 36/36/3
f 40/40/5 37/37/5 38/38/5
f 38/38/5 39/39/5 40/40/5
f 44/44/4 41/41/4 42/42/4
f 42/42/4 43/43/4 44/44/4
f 46/46/2 6/6/2 5/5/2
f 5/5/2 45/45/2 46/46/2
f 48/48/4 47/47/4 41/41/4
f 41/41/4 44/44/4 48/48/4
f 45/45/2 5/5/2 49/49/2
f 49/49/2 50/50/2 45/45/2
f 52/52/2 8/8/2 7/7/2
f 7/7/2 51/51/2 52/52/2
f 56/56/4 53/53/4 54/54/4
f 54/54/4 55/55/4 56/56/4
f 43/43/4 42/42/4 57/57/4
f 57/57/4 58/58/4 43/43/4
f 60/60/2 59/59/2 6/6/2
f 6/6/2 46/46/2 60/60/2
